<?xml version="1.0" encoding="UTF-8"?>
<!DOCTYPE svg PUBLIC "-//W3C//DTD SVG 1.1//EN" "http://www.w3.org/Graphics/SVG/1.1/DTD/svg11.dtd">
<svg xmlns="http://www.w3.org/2000/svg" version="1.1" width="314px" height="578px" style="shape-rendering:geometricPrecision; text-rendering:geometricPrecision; image-rendering:optimizeQuality; fill-rule:evenodd; clip-rule:evenodd" xmlns:xlink="http://www.w3.org/1999/xlink">
<g><path style="opacity:0.991" fill="#9b9a9f" d="M 192.5,3.5 C 196.131,3.16039 199.464,3.99372 202.5,6C 256.431,38.8408 282.097,87.1742 279.5,151C 278.967,190.537 266.467,225.704 242,256.5C 225.372,276.13 208.372,295.463 191,314.5C 179.583,328.333 171.583,344 167,361.5C 161.88,378.782 165.713,393.615 178.5,406C 194.642,416.668 210.142,415.835 225,403.5C 233.462,393.322 236.462,381.655 234,368.5C 231.017,356.568 228.35,344.568 226,332.5C 223.741,321.874 225.908,312.374 232.5,304C 235.865,301.843 239.032,302.009 242,304.5C 243.693,322.882 251.026,338.548 264,351.5C 299.61,381.971 314.61,420.638 309,467.5C 301.241,511.182 277.074,542.015 236.5,560C 199.371,574.795 161.371,577.462 122.5,568C 66.0946,549.928 28.5946,512.761 10,456.5C -4.91056,395.384 6.42278,339.718 44,289.5C 51.1281,280.703 58.6281,272.203 66.5,264C 89.1667,245.333 111.833,226.667 134.5,208C 156.112,190.057 175.279,169.89 192,147.5C 204.993,129.843 213.327,110.176 217,88.5C 219.091,59.4388 210.424,34.1055 191,12.5C 189.01,9.12612 189.51,6.12612 192.5,3.5 Z"/></g>
</svg>
