<svg width="182" height="211" viewBox="0 0 182 211" fill="none" xmlns="http://www.w3.org/2000/svg">
<path d="M99.02 1.94872C98.18 0.928719 99.38 -0.49128 100.53 0.16872C116.36 9.27872 119.89 21.2587 119.89 35.3587C119.89 64.1587 92.56 70.2187 92.56 89.9487C92.56 94.0487 96.03 98.4487 101.06 98.4487C106.58 98.4487 109.55 93.9387 109.55 89.6587C109.55 84.4087 104.6 75.7387 109.22 71.9987C109.95 71.4087 111.05 71.8887 111.13 72.8187C112.34 86.7187 127.29 84.7787 127.29 108.129C127.29 121.259 116.05 136.609 92.5 136.609C72.01 136.609 53.89 118.949 53.89 97.1587C53.89 82.0987 61.19 68.5487 73.76 58.5587C91.24 44.6687 117.65 24.4987 99.02 1.94872Z" fill="#DE002B"/>
<path d="M55.62 162.139C55.69 161.809 55.69 161.409 55.69 161.279C55.69 160.419 55.29 159.889 54.03 159.889C51.91 159.889 47.4 161.879 44.41 163.669L40.63 185.159H32.67L36.72 162.139C36.79 161.809 36.79 161.409 36.79 161.279C36.79 160.419 36.39 159.889 35.13 159.889C33.01 159.889 28.5 161.879 25.51 163.669L21.73 185.159H13.77L18.98 155.569L26.22 152.189L26.11 156.239C30.36 153.919 35.4 152.189 39.18 152.189C42.56 152.189 44.22 153.909 44.82 156.299C49.4 153.649 54.37 152.189 58.09 152.189C62.53 152.189 63.99 155.109 63.99 158.619C63.99 159.749 63.86 160.809 63.66 161.799L59.55 185.149H51.59L55.62 162.139Z" fill="#DE002B"/>
<path d="M70.85 155.419L78.07 152.049L78.08 156.429C80.87 153.909 84.32 152.179 89.09 152.179C94.66 152.179 96.59 155.159 96.59 159.539C96.59 160.599 96.46 161.729 96.26 162.919L94.6 172.339C93.14 180.629 91.62 185.799 78.88 185.799C77.69 185.799 75.36 185.599 73.57 185.199L70.19 203.889L63.87 194.869L70.85 155.419ZM74.7 178.719C76.16 179.049 78.28 179.119 79.41 179.119C84.52 179.119 85.84 177.059 86.57 172.819L88.56 161.409C88.63 161.009 88.63 160.809 88.63 160.609C88.63 159.419 87.83 158.889 86.37 158.889C82.99 158.889 79.07 161.609 77.35 163.729L74.7 178.719Z" fill="#DE002B"/>
<path d="M106.45 175.729C106.12 177.589 106.05 179.179 108.97 179.179C112.42 179.179 117.2 177.589 121.37 175.469L121.39 182.509C117.57 184.429 112.48 185.809 107.84 185.809C99.28 185.809 97.56 181.029 98.75 174.269L100.47 164.449C101.86 156.819 105.44 152.179 115.2 152.179C121.37 152.179 125.71 155.369 125.55 160.599C125.21 171.919 109.81 171.919 107.09 171.919L106.45 175.729ZM117.93 160.939C117.93 159.479 116.67 158.419 114.55 158.419C110.9 158.419 109.11 160.679 108.58 163.729L107.68 168.719C109.06 168.719 117.93 166.309 117.93 160.939Z" fill="#DE002B"/>
<path d="M130.37 177.989L133.69 159.219H128.52L129.71 152.849H134.82L135.68 147.909L144.35 143.869L142.78 152.849H151.01L149.75 159.219H141.65L138.4 177.659C138.2 178.789 138.53 179.319 139.73 179.319C141.32 179.319 143.44 178.589 145.3 177.859L145.32 184.109C142.88 185.129 139.97 185.819 136.88 185.819C131.83 185.819 129.58 182.629 130.37 177.989Z" fill="#DE002B"/>
<path d="M151.22 175.269C151.22 174.409 151.29 173.549 151.42 172.679L152.81 164.919C154.27 156.959 158.18 152.179 168.99 152.179C177.28 152.179 181.19 156.819 181.19 162.529C181.19 163.329 181.12 164.059 180.99 164.849L179.46 173.469C178.13 181.029 174.55 185.809 163.21 185.809C154.86 185.819 151.22 180.969 151.22 175.269ZM173.1 164.459C173.17 164.059 173.23 163.399 173.23 162.999C173.23 160.349 171.57 158.889 167.92 158.889C163.74 158.889 161.49 160.809 160.76 164.789L159.23 173.479C159.16 173.879 159.1 174.479 159.1 174.939C159.1 177.529 160.56 179.119 164.41 179.119C168.59 179.119 170.84 177.259 171.51 173.479L173.1 164.459Z" fill="#DE002B"/>
<path d="M5.69 152.849H13.78L8.00998 185.149H0L5.69 152.849Z" fill="#DE002B"/>
<path d="M6.29999 149.409L15.11 145.369L14.12 150.909H6.03L6.29999 149.409Z" fill="#DE002B"/>
<path d="M86.11 202.049L86.91 197.009H85.73L85.63 196.909L85.83 195.729L85.93 195.629H87.21L87.71 193.609L87.81 193.509L88.91 193.349L89.01 193.449L88.65 195.629H91.79L91.89 195.729L91.45 196.909L91.35 197.009H88.43L87.65 201.929C87.59 202.269 87.57 202.569 87.57 202.829C87.57 203.929 88.05 204.349 88.85 204.349C89.69 204.349 90.51 203.749 90.51 203.749L90.65 203.789L91.13 204.849L91.07 204.989C91.07 204.989 90.11 205.749 88.63 205.749C86.99 205.749 86.03 204.729 86.03 202.949C86.03 202.669 86.05 202.369 86.11 202.049Z" fill="#5C5B5F"/>
<path d="M93.39 201.829L93.83 198.909C94.15 196.729 95.55 195.389 97.85 195.389C99.93 195.389 100.85 196.569 100.85 197.949C100.85 200.329 98.99 201.249 97.23 201.249C95.57 201.249 95.11 200.249 95.07 200.149L95.05 200.909L94.89 201.969C94.85 202.189 94.83 202.429 94.83 202.629C94.83 203.789 95.47 204.389 96.57 204.389C98.19 204.389 99.29 203.109 99.29 203.109L99.43 203.089L100.19 203.989V204.129C100.19 204.129 98.87 205.749 96.51 205.749C94.75 205.749 93.29 204.949 93.29 202.829C93.29 202.509 93.33 202.169 93.39 201.829ZM97.23 199.889C98.09 199.889 99.29 199.509 99.29 198.009C99.29 197.369 98.85 196.769 97.71 196.769C96.21 196.769 95.55 197.569 95.33 199.129L95.27 199.549C95.55 199.809 96.43 199.889 97.23 199.889Z" fill="#5C5B5F"/>
<path d="M103.05 201.829L103.51 198.829C103.81 196.849 105.17 195.389 107.59 195.389C109.47 195.389 110.37 196.429 110.37 196.429L110.39 196.569L109.57 197.489L109.43 197.509C109.43 197.509 108.77 196.749 107.47 196.749C105.99 196.749 105.23 197.589 104.99 199.149L104.55 201.969C104.51 202.189 104.49 202.429 104.49 202.629C104.49 203.789 105.13 204.389 106.23 204.389C107.85 204.389 108.95 203.109 108.95 203.109L109.09 203.089L109.85 203.989V204.129C109.85 204.129 108.53 205.749 106.17 205.749C104.41 205.749 102.95 204.949 102.95 202.829C102.95 202.509 102.99 202.169 103.05 201.829Z" fill="#5C5B5F"/>
<path d="M113.53 198.649C113.57 198.409 113.67 197.889 113.67 197.589C113.67 197.189 113.37 196.929 113.01 196.929H112.95L112.87 196.809L113.49 195.609L113.61 195.529H113.77C113.95 195.529 115.09 195.689 115.23 196.969C115.23 196.969 115.87 195.389 118.01 195.389C119.37 195.389 120.65 196.269 120.65 198.029C120.65 198.269 120.61 198.549 120.57 198.829L119.93 202.689C119.83 203.249 119.81 203.409 119.81 203.509C119.81 204.089 120.31 204.169 120.57 204.169H120.61L120.71 204.269L120.29 205.469L120.19 205.569H120.05C119.57 205.569 118.25 205.429 118.25 203.889C118.25 203.729 118.27 203.529 118.39 202.849L118.99 199.149C119.03 198.869 119.05 198.629 119.05 198.409C119.05 197.229 118.43 196.789 117.33 196.789C116.95 196.789 116.45 196.909 116.03 197.049L115.27 197.309L113.97 205.409L113.87 205.509H112.55L112.45 205.409L113.53 198.649Z" fill="#5C5B5F"/>
<path d="M123.31 202.169L123.83 198.829C124.17 196.589 125.77 195.389 127.97 195.389C129.81 195.389 131.25 196.369 131.25 198.229C131.25 198.409 131.23 198.689 131.19 198.949L130.67 202.309C130.33 204.549 128.75 205.749 126.53 205.749C124.71 205.749 123.25 204.769 123.25 202.909C123.24 202.689 123.27 202.409 123.31 202.169ZM126.63 204.389C127.99 204.389 128.95 203.529 129.19 201.969L129.63 199.149C129.67 198.929 129.69 198.709 129.69 198.509C129.69 197.369 129.09 196.749 127.85 196.749C126.41 196.749 125.53 197.589 125.29 199.149L124.85 201.969C124.81 202.209 124.79 202.449 124.79 202.649C124.79 203.789 125.35 204.389 126.63 204.389Z" fill="#5C5B5F"/>
<path d="M135.47 191.289L135.57 191.189L136.93 190.989L137.03 191.089L135.11 203.109C135.07 203.349 135.07 203.429 135.07 203.509C135.07 204.089 135.47 204.169 135.81 204.169H135.87L135.95 204.289L135.55 205.469L135.45 205.569H135.29C134.99 205.569 133.51 205.429 133.51 203.829C133.51 203.669 133.53 203.409 133.57 203.209L135.47 191.289Z" fill="#5C5B5F"/>
<path d="M138.81 202.169L139.33 198.829C139.67 196.589 141.27 195.389 143.47 195.389C145.31 195.389 146.75 196.369 146.75 198.229C146.75 198.409 146.73 198.689 146.69 198.949L146.17 202.309C145.83 204.549 144.25 205.749 142.03 205.749C140.21 205.749 138.75 204.769 138.75 202.909C138.74 202.689 138.77 202.409 138.81 202.169ZM142.13 204.389C143.49 204.389 144.45 203.529 144.69 201.969L145.13 199.149C145.17 198.929 145.19 198.709 145.19 198.509C145.19 197.369 144.59 196.749 143.35 196.749C141.91 196.749 141.03 197.589 140.79 199.149L140.35 201.969C140.31 202.209 140.29 202.449 140.29 202.649C140.29 203.789 140.85 204.389 142.13 204.389Z" fill="#5C5B5F"/>
<path d="M149 202.269L149.54 198.829C149.88 196.589 151.4 195.389 153.6 195.389C154.84 195.389 155.7 196.009 155.7 196.009L157.02 195.649L157.1 195.769L155.32 206.869C154.96 209.169 153.24 210.109 151.42 210.109C149.68 210.109 148.78 209.389 148.78 209.389L148.76 209.249L149.34 208.229L149.48 208.189C149.48 208.189 150.1 208.729 151.4 208.729C152.78 208.729 153.62 207.989 153.82 206.809L154.1 205.109L154.3 204.229C154.22 204.449 153.56 205.749 151.62 205.749C149.86 205.749 148.94 204.549 148.94 202.969C148.94 202.749 148.96 202.509 149 202.269ZM152.29 204.389C152.83 204.389 154.29 203.849 154.29 203.849L155.07 199.029C155.11 198.829 155.13 198.529 155.13 198.349C155.13 197.309 154.75 196.749 153.45 196.749C152.23 196.749 151.29 197.609 151.03 199.169L150.57 201.989C150.53 202.229 150.51 202.449 150.51 202.649C150.51 203.649 150.97 204.389 152.29 204.389Z" fill="#5C5B5F"/>
<path d="M160.54 195.829L160.64 195.729L162 195.529L162.1 195.629L160.54 205.409L160.44 205.509H159.12L159.02 205.409L160.54 195.829ZM160.77 193.169L161.03 191.569L161.13 191.469H162.73L162.83 191.569L162.57 193.169L162.47 193.269H160.87L160.77 193.169Z" fill="#5C5B5F"/>
<path d="M164.2 202.269L164.74 198.829C165.08 196.589 166.58 195.389 168.8 195.389C170.04 195.389 170.9 196.009 170.9 196.009L172.22 195.649L172.3 195.769L171.1 203.209C171.08 203.309 171.06 203.489 171.06 203.549C171.06 204.089 171.52 204.169 171.72 204.169H171.8L171.88 204.289L171.26 205.489L171.14 205.569H171C170.82 205.569 169.68 205.509 169.54 204.189C169.54 204.189 168.94 205.749 166.82 205.749C165.06 205.749 164.14 204.549 164.14 202.969C164.14 202.749 164.16 202.509 164.2 202.269ZM167.49 204.389C168.03 204.389 169.49 203.849 169.49 203.849L170.27 199.049C170.31 198.829 170.33 198.529 170.33 198.349C170.33 197.309 169.95 196.749 168.65 196.749C167.43 196.749 166.49 197.609 166.23 199.169L165.77 201.989C165.73 202.229 165.71 202.449 165.71 202.649C165.71 203.649 166.17 204.389 167.49 204.389Z" fill="#5C5B5F"/>
</svg>
